<svg xmlns="http://www.w3.org/2000/svg" width="38.189" height="50.921" viewBox="0 0 38.189 50.921">
    <defs>
        <style>
            .cls-1{fill:#fff}
        </style>
    </defs>
    <g id="Grupo_8" data-name="Grupo 8" transform="translate(-.001)">
        <path id="Trazado_13" d="M.441 50.835a.8.8 0 0 0 1.068-.356l4.461-8.922L22 47.132l.753.262-1.186 2.373a.8.8 0 0 0 .356 1.068.783.783 0 0 0 .355.085.8.8 0 0 0 .713-.44l1.592-3.18c.007-.014.006-.029.012-.042s.021-.034.028-.053a32.378 32.378 0 0 1 .036-.264.954.954 0 0 0-.018-.149.755.755 0 0 0-.039-.146.8.8 0 0 0-.074-.13.754.754 0 0 0-.09-.121.885.885 0 0 0-.122-.1.817.817 0 0 0-.086-.067c-.017-.008-.034-.007-.05-.014s-.027-.02-.045-.026l-.458-.159 8.5-9.434h.443a2.39 2.39 0 0 0 2.387-2.387 3.169 3.169 0 0 0 2.082-5.569 3.141 3.141 0 0 0 0-4.775 3.14 3.14 0 0 0 0-4.774 3.168 3.168 0 0 0-2.082-5.568V2.387A2.39 2.39 0 0 0 32.621 0H13.526a2.39 2.39 0 0 0-2.387 2.387V16a5.548 5.548 0 0 0-3.978-1.679.8.8 0 0 0-.8.8V40.01l-.535-.185a.664.664 0 0 0-.107-.015.81.81 0 0 0-.153-.021.849.849 0 0 0-.151.019.745.745 0 0 0-.145.039.736.736 0 0 0-.127.073.8.8 0 0 0-.125.092.7.7 0 0 0-.093.121.728.728 0 0 0-.069.087L.085 49.767a.8.8 0 0 0 .356 1.068zM35.007 32.62h-.8a1.591 1.591 0 0 1 0-3.182h.8a1.591 1.591 0 0 1 0 3.182zm1.593-6.366a1.593 1.593 0 0 1-1.591 1.591h-.8a1.591 1.591 0 0 1 0-3.181h.796a1.593 1.593 0 0 1 1.595 1.59zm-2.387-3.182h-.006a1.591 1.591 0 0 1 .006-3.182h.8a1.591 1.591 0 0 1-.006 3.182zm2.387-6.364a1.592 1.592 0 0 1-1.589 1.592h-.795a1.591 1.591 0 0 1 0-3.182h.8a1.593 1.593 0 0 1 1.584 1.59zM12.73 2.387a.8.8 0 0 1 .8-.8h19.091a.8.8 0 0 1 .8.8v11.252a3.157 3.157 0 0 0-1.287 5.456 3.14 3.14 0 0 0 0 4.774 3.139 3.139 0 0 0 0 4.773 3.157 3.157 0 0 0 1.282 5.458v.113a.8.8 0 0 1-.8.8h-19.09a.8.8 0 0 1-.8-.8zM7.957 15.993a3.985 3.985 0 0 1 3.182 3.9v14.318a2.39 2.39 0 0 0 2.387 2.389h16.511l-8 8.865-14.084-4.9z" class="cls-1" data-name="Trazado 13"/>
        <path id="Trazado_14" d="M65 456a.8.8 0 1 0 .009 0z" class="cls-1" data-name="Trazado 14" transform="translate(-57.824 -410.651)"/>
        <path id="Trazado_15" d="M210.387 296a2.387 2.387 0 1 0 2.387 2.387 2.39 2.39 0 0 0-2.387-2.387zm0 3.182a.8.8 0 1 1 .8-.8.8.8 0 0 1-.8.8z" class="cls-1" data-name="Trazado 15" transform="translate(-187.314 -266.563)"/>
        <path id="Trazado_16" d="M201.009 33.591a.8.8 0 1 0 0-1.591H201a.8.8 0 0 0 .008 1.591z" class="cls-1" data-name="Trazado 16" transform="translate(-180.298 -28.818)"/>
        <path id="Trazado_17" d="M224.8 33.591h2.387a.8.8 0 1 0 0-1.591H224.8a.8.8 0 1 0 0 1.591z" class="cls-1" data-name="Trazado 17" transform="translate(-201.722 -28.818)"/>
        <path id="Trazado_18" d="M160.8 147.159h12.73a.8.8 0 0 0 0-1.591v-.8a6.375 6.375 0 0 0-4.5-6.085 1.968 1.968 0 0 0 .126-.677 1.989 1.989 0 1 0-3.852.677 6.377 6.377 0 0 0-4.5 6.085v.8a.8.8 0 0 0 0 1.591zm5.967-9.15a.4.4 0 1 1 .4.4.4.4 0 0 1-.404-.4zm-4.376 6.763a4.774 4.774 0 1 1 9.547 0v.8h-9.547z" class="cls-1" data-name="Trazado 18" transform="translate(-144.087 -122.493)"/>
        <path id="Trazado_19" d="M184.806 101.572a.8.8 0 0 0 .8-.8V96.8a.8.8 0 1 0-1.591 0v3.981a.8.8 0 0 0 .791.791z" class="cls-1" data-name="Trazado 19" transform="translate(-165.709 -86.453)"/>
        <path id="Trazado_20" d="M264.806 101.572a.8.8 0 0 0 .8-.8V96.8a.8.8 0 1 0-1.591 0v3.981a.8.8 0 0 0 .791.791z" class="cls-1" data-name="Trazado 20" transform="translate(-237.753 -86.453)"/>
        <path id="Trazado_21" d="M224.8 99.182a.8.8 0 0 0 .8-.8V96.8a.8.8 0 0 0-1.591 0v1.591a.8.8 0 0 0 .791.791z" class="cls-1" data-name="Trazado 21" transform="translate(-201.722 -86.453)"/>
    </g>
</svg>
