<svg xmlns="http://www.w3.org/2000/svg" id="Grupo_17" width="17.132" height="17.135" data-name="Grupo 17" viewBox="0 0 17.132 17.135">
    <defs>
        <style>
            .cls-1{fill:#fff}
        </style>
    </defs>
    <path id="Trazado_44" d="M17.088 5.038a6.262 6.262 0 0 0-.4-2.079A4.39 4.39 0 0 0 14.182.452 6.276 6.276 0 0 0 12.1.054C11.187.01 10.9 0 8.569 0S5.952.01 5.038.05a6.262 6.262 0 0 0-2.079.4 4.179 4.179 0 0 0-1.52.991 4.222 4.222 0 0 0-.987 1.515 6.278 6.278 0 0 0-.4 2.078C.01 5.952 0 6.243 0 8.569s.01 2.618.05 3.531a6.262 6.262 0 0 0 .4 2.079 4.225 4.225 0 0 0 .99 1.521 4.218 4.218 0 0 0 1.516.988 6.28 6.28 0 0 0 2.079.4c.914.04 1.205.05 3.531.05s2.618-.01 3.531-.05a6.262 6.262 0 0 0 2.079-.4 4.383 4.383 0 0 0 2.507-2.507 6.28 6.28 0 0 0 .4-2.079c.04-.914.05-1.205.05-3.531s-.005-2.619-.045-3.533zm-1.543 7a4.692 4.692 0 0 1-.295 1.59 2.843 2.843 0 0 1-1.627 1.627 4.712 4.712 0 0 1-1.59.294c-.9.04-1.175.05-3.461.05s-2.561-.01-3.461-.05a4.7 4.7 0 0 1-1.59-.294 2.634 2.634 0 0 1-.984-.639 2.665 2.665 0 0 1-.639-.984 4.712 4.712 0 0 1-.294-1.59c-.04-.9-.05-1.175-.05-3.461s.01-2.561.05-3.461A4.7 4.7 0 0 1 1.9 3.525a2.6 2.6 0 0 1 .64-.985 2.655 2.655 0 0 1 .984-.64 4.718 4.718 0 0 1 1.59-.295c.9-.04 1.175-.05 3.461-.05s2.561.01 3.461.05a4.692 4.692 0 0 1 1.59.295 2.638 2.638 0 0 1 .984.639 2.665 2.665 0 0 1 .639.984 4.718 4.718 0 0 1 .295 1.59c.04.9.05 1.175.05 3.461s-.009 2.556-.049 3.46z" class="cls-1" data-name="Trazado 44"/>
    <path id="Trazado_45" d="M128.682 124.28a4.4 4.4 0 1 0 4.4 4.4 4.4 4.4 0 0 0-4.4-4.4zm0 7.257a2.855 2.855 0 1 1 2.855-2.855 2.856 2.856 0 0 1-2.855 2.855z" class="cls-1" data-name="Trazado 45" transform="translate(-120.113 -120.113)"/>
    <path id="Trazado_46" d="M363.416 89.468a1.028 1.028 0 1 1-1.028-1.028 1.028 1.028 0 0 1 1.028 1.028z" class="cls-1" data-name="Trazado 46" transform="translate(-349.243 -85.474)"/>
</svg>
