<svg xmlns="http://www.w3.org/2000/svg" id="Grupo_15" width="61.196" height="47.186" data-name="Grupo 15" viewBox="0 0 61.196 47.186">
    <defs>
        <style>
            .cls-1{fill:#c2c3c9}.cls-2{fill:#fff}.cls-2,.cls-3,.cls-4,.cls-5{fill-rule:evenodd}.cls-3{fill:#c02217}.cls-4{fill:#c22f2f}
        </style>
    </defs>
    <circle id="Elipse_4" cx="20.836" cy="20.836" r="20.836" class="cls-1" data-name="Elipse 4" transform="translate(9.762 5.514)"/>
    <g id="Grupo_14" data-name="Grupo 14">
        <path id="Trazado_23" d="M459.907 153.72a3.986 3.986 0 0 1 3.383 2.151 1.252 1.252 0 0 1 .421.8v.081l-.121 1.6v10.512h.076a28.615 28.615 0 0 0 3.432-4.136 22.633 22.633 0 0 1 2.039-3.163 1.273 1.273 0 0 1 .874-.345q1.176 0 1.837 1.864l.04.583v.072q0 1.983-2.913 3.168a8.005 8.005 0 0 0-1.975 1.264v.027q1.021.551 1.022 1.224a15.17 15.17 0 0 0 2.536 4.548c0 .233.874 1.192 2.621 2.868.583.475.878.829.878 1.057 0 .363-.408.578-1.21.641a18.44 18.44 0 0 1-4.1-.9 2.726 2.726 0 0 1-.959-1.644 19.84 19.84 0 0 0-3.275-5.368c-.26-.265-.43-.4-.5-.4a1.378 1.378 0 0 0-.5.8 22.782 22.782 0 0 1-1.689 7.219 6.366 6.366 0 0 1-.927 2.182c-.094-.045-.143-.161-.143-.35l.193-1.94v-.157l-.5-4.037c-.152-1.591-.22-4.078-.22-7.461l-.049-.878.049-.031-.049-.457v-1.833l-.031-.421.031-.045-.031-.564v-1.456l-.049-.721.049-.031-.049-.578v-1.192a5.312 5.312 0 0 0-1.483-3.778v-.112c.154-.443.585-.663 1.292-.663z" class="cls-2" data-name="Trazado 23" transform="translate(-430.069 -144.153)"/>
        <path id="Trazado_24" d="M103.7 23.543v-1.528c1.546-1.739 3.083-3.491 4.459-5.341a42.4 42.4 0 0 1-4.459 6.869zm0-2.42c.39-.457.775-.919 1.156-1.38a6.228 6.228 0 0 1 .578-.927c.322-.7.735-1.308 1.1-1.967.269-.4.457-.892.753-1.273a5.97 5.97 0 0 1-.695 1.273 20.747 20.747 0 0 1-1.1 1.967c-.1.264-.322.412-.4.695a43.69 43.69 0 0 0 3.473-4.4c.977-1.644 2.173-3.257 2.953-4.92a2.022 2.022 0 0 0 .058-1.967 6.7 6.7 0 0 0-.636 1.622c-.161 0-.116-.1-.233 0a11.958 11.958 0 0 1-1.044 1.909 15.686 15.686 0 0 1 .986-2.375c.3-.578.937-1.219.636-1.851-1.487 2.617-3.061 5.162-4.517 7.815a1.474 1.474 0 0 1-.287.462 1.353 1.353 0 0 1 .233-.52c1.219-2.926 3.092-5.2 4.338-8.106a.772.772 0 0 0-.578-.345c-1.725 2.3-2.868 5.2-4.745 7.353.014.242-.152.309-.116.578-.676.995-1.3 2.048-1.909 3.11v1.672c.466-.533.937-1.053 1.389-1.6a5.005 5.005 0 0 1 .4-.462c0-.175.152-.2.175-.35.246-.385.448-.82.695-1.214 0 .381-.421.851-.636 1.214v.116c.049-.022.1-.049.116-.116.094-.112.152-.269.345-.287-.085.085-.1.242-.228.287a7.318 7.318 0 0 0-.466.583c-.049.193-.13 0-.228.112a.8.8 0 0 1-.291.641 5.045 5.045 0 0 1-.52.865c-.255.381-.489.784-.753 1.156v.631zm0-.65a3.731 3.731 0 0 1 .695-1.138 5.044 5.044 0 0 1 .52-.865 13.164 13.164 0 0 0-1.215 1.23v.771zm0-3c.085-.233.166-.484.287-.739.238-.5.807-.887.869-1.505-.22.031-.309.5-.52.35a13.176 13.176 0 0 0 1.622-3.419 23.627 23.627 0 0 0-1.564 2.433c-.228.34-.452.686-.695 1.022v1.859zm0-4.01v-.578a.994.994 0 0 0 .059-.085 1 1 0 0 1 0 .695c-.022-.009-.04-.022-.059-.031zm9.782-5.874c.076.018.09.1.175.116-.166.663-.529 1.129-.695 1.792-.171-.049-.067-.085-.058-.233-.381.757-.726 1.555-1.1 2.316.188-1.467 1.106-2.712 1.676-3.994zm-9.782 5.3v.578a.367.367 0 0 1-.116-.318.766.766 0 0 1 .116-.26zm0 2.729v1.86a3.26 3.26 0 0 1-.35.766c-.255.385-.529.784-.8 1.2v-2.628a.244.244 0 0 0 .045.031 6.455 6.455 0 0 0 1.1-1.236zm0 2.263c-.385.676-.762 1.358-1.147 2.034v.937a1.992 1.992 0 0 1 .22-.175c.3-.39.609-.757.927-1.125v-1.678zm0 1.828v1.42c-.381.457-.766.91-1.147 1.358v-1.494c.063-.134.22-.179.278-.322.283-.3.574-.637.869-.968zm0 2.313l-1.147 1.3v.8c.09-.121.215-.273.278-.2a3.515 3.515 0 0 0-.278.354v.713c.385-.466.77-.945 1.147-1.434v-1.54zm-1.147-8.926v-.171l.045-.067a1.05 1.05 0 0 1-.047.231zm0-.17v.171c-.148.462-.551.937-.708 1.443-.452.511-.869 1.053-1.331 1.555v-.26c.65-1 1.331-1.967 2.039-2.908zm0 3.9c-.385-.26-.452-.977-.358-1.532-.583.748-1.089 1.577-1.68 2.316v2.487a8.217 8.217 0 0 0 1.214-.923c.031.825-.69 1.389-1.156 1.909l-.058.067v2.218c.058-.049.116-.1.175-.143.179.018-.148-.166.058-.175.049-.1.161-.148.116-.345a.523.523 0 0 1 .171-.408 14.012 14.012 0 0 1 1.519-2.854v-2.626zm0 3.092v.937c-.054.059-.081.116-.014.171 0-.009.009-.014.014-.022v1.487c-.681.8-1.362 1.6-2.039 2.4v-1.2c.636-.887 1.259-1.792 1.967-2.608a11.256 11.256 0 0 0-1.331 1.331c-.175.126-.184.121-.059-.059.506-.793.986-1.613 1.461-2.437zm0 3.4v.8c-.027.036-.054.067-.072.09-.2.3-.466.533-.695.807a5.977 5.977 0 0 0-.753.753 4.317 4.317 0 0 1-.52.546v-.641c.663-.793 1.344-1.573 2.039-2.357zm0 .955a.383.383 0 0 1-.072.049c-.6.8-1.308 1.6-1.967 2.389v.363c.094-.09.193-.175.291-.26a5.45 5.45 0 0 1 .753-.753 3.064 3.064 0 0 1 .578-.578l.417-.5v-.712zm-2.039-20V1.286c.022-.166.04-.34.059-.533.193.1.269.314.408.466a17.863 17.863 0 0 1-.466 3.047zm1.044-1.541A7.147 7.147 0 0 1 101.784 0c.283.811-.201 1.833-.228 2.725zm-1.044-1.439v2.98c-.094.395-.2.775-.318 1.151V2.827a10.13 10.13 0 0 0 .318-1.542zm0 14.541v.26c-.1.112-.21.224-.318.332v-.094c.107-.166.21-.332.318-.5zm0 1.775v2.487c-.171 0-.215.134-.287.233a.168.168 0 0 0-.031.022V18.08c.107-.161.21-.322.318-.479zm0 3.54v2.218a3.589 3.589 0 0 0-.318.327v-2.2c.107-.113.215-.225.318-.341zm0 2.54c-.1.148-.21.3-.318.439v1.143c.108-.13.21-.255.318-.381v-1.2zm0 1.985v.641a2.156 2.156 0 0 0-.228.264 1.35 1.35 0 0 0-.09.072v-.591l.318-.386zm0 1.035v.363a5.61 5.61 0 0 0-.318.318v-.291c.1-.13.21-.26.318-.39zm-.318-19.367v-.536a1.3 1.3 0 0 0 .031-.148c.193.2-.126.587.112.695-.045-.009-.054-.059-.112-.059a.275.275 0 0 0-.031.041zm0-5.467a2.388 2.388 0 0 0 .031-1.519c-.014.04-.022.081-.031.116zm0-1.4v1.4a3.7 3.7 0 0 0-.085 1.259c.031-.1.059-.2.085-.3v2.59A29.7 29.7 0 0 1 99.065 8.4c-.022-.757.363-1.609.408-2.491a20.584 20.584 0 0 0-.636 2.953c.031.166.09-.09.171-.059-.081.036-.009.224-.116.233-.014.018-.036.045-.054.072V7.277a2.735 2.735 0 0 0 .054-1.022c-.018.072-.04.152-.054.233V2.473a12.185 12.185 0 0 1 .577-2.415c.224-.031.283.1.52.059-.139 1.891-.757 3.3-.927 5.153a5.031 5.031 0 0 0-.116.869c.152-.1.121-.381.175-.578.325-1.748.719-3.428 1.128-5.095zm0 6.34a.317.317 0 0 1-.2.255 6.515 6.515 0 0 1-.927 2.2 1.53 1.53 0 0 1-.228.748v1.86c.094-.215.193-.426.287-.636.39-1.156.69-2.4 1.044-3.589a.674.674 0 0 1 .027-.309v-.537zm0 9.518v.094c-.049.045-.094.094-.143.139.049-.076.093-.152.143-.233zm0 1.756v2.263a2.752 2.752 0 0 0-.721.9c-.1.148-.255.246-.35.4-.094.116-.193.228-.287.345v-2.335c.112-.112.228-.22.345-.327a1.613 1.613 0 0 0-.175.291 10.318 10.318 0 0 0 1.188-1.545zm0 3.4c-.228.242-.47.47-.721.69-.206.273-.421.538-.636.8v2.76c.054-.049.112-.1.171-.143.018-.121.157-.116.175-.233a2.759 2.759 0 0 1-.345.713v.843a125 125 0 0 1 1.358-1.649v-1.148c-.233.322-.475.641-.721.945.014.193-.072.283-.233.291.045-.193.179-.251.175-.35a1.732 1.732 0 0 1 .578-1.039c.014-.085.094-.1.116-.175.027-.036.059-.072.085-.108v-2.2zm0 4.571v.591a3.51 3.51 0 0 0-.493.507c-.283.26-.583.507-.865.766v-.134c.434-.583.892-1.161 1.358-1.73zm0 1.039c-.35.43-.672.856-.955 1.277a4.638 4.638 0 0 1 .695-.695c.085-.1.171-.2.26-.291v-.291zm-1.36-24.626v4.015a5.465 5.465 0 0 1-.291 1.156 2 2 0 0 1-.224.452V4.534a1.361 1.361 0 0 0 .108-.251 14.6 14.6 0 0 0 .408-1.81zm0 4.8a5.887 5.887 0 0 1-.233.654v.116a6.175 6.175 0 0 0-.175.753 1 1 0 0 1-.108.412v1.022l.108-.161c-.193-.049.188-.69.408-.968V7.277zm0 2.733v1.86c-.171.372-.34.744-.515 1.112v-1.915c.116-.269.233-.542.34-.815a1.377 1.377 0 0 0 .175-.238zm0 9.652V22c-.171.193-.34.39-.515.583v-2.4c.171-.179.34-.35.515-.52zm0 3.311v2.76a4.062 4.062 0 0 0-.466.493.505.505 0 0 1-.049.045v-2.7c.175-.2.345-.4.515-.6zm0 3.1a6.319 6.319 0 0 1-.515.65v.833c.171-.215.34-.426.515-.641v-.841zm0 1.711v.134c-.121.108-.238.22-.35.336.117-.157.229-.314.35-.47zm-.515 1.577v-.238c.157-.134.309-.269.457-.408a1.967 1.967 0 0 1-.457.645zm0-9.818v-.134c.134-.139.269-.278.4-.417v.059c-.134.161-.264.327-.4.493zm0-10.628v-.47l.049-.1a.265.265 0 0 1 .116-.233c0 .273-.1.439-.116.695a1.156 1.156 0 0 1-.049.11zm0-4.378V8.1a.433.433 0 0 0-.067.358 3.3 3.3 0 0 0-.52 1.1c.188-.377.408-.731.587-1.112v.47a.8.8 0 0 0-.067.408c-.054.139 0 .045.067-.108v1.022a12.54 12.54 0 0 0-.963 1.949v-1.729a1.8 1.8 0 0 0 .2-.614 4.018 4.018 0 0 0-.2.439V9.11c.036-.283.049-.591.085-.945.081-.775.511-1.555.583-2.375a4.974 4.974 0 0 1 0-.578 2.656 2.656 0 0 1 .3-.677zm0 6.529c-.309.721-.641 1.42-.963 2.133v.7c.278-.515.632-1.107.9-1.622a9.948 9.948 0 0 1-.865 1.967.3.3 0 0 1-.031.224v.246a7.155 7.155 0 0 1 .551-.874c.143-.283.278-.564.412-.856v-1.917zm0 8.343v.134c-.318.395-.641.789-.963 1.183v-.34c.322-.327.645-.65.963-.977zm0 .775c-.322.332-.641.681-.963 1.017v2.469c.318-.363.645-.726.963-1.089v-2.4zm0 3.392v2.7a9.385 9.385 0 0 0-.963 1.241v-2.855c.327-.358.65-.721.963-1.084zm0 3.146c-.314.354-.658.69-.963 1.039v1.033c.318-.417.641-.829.963-1.237v-.833zm0 2.4v.238a6.8 6.8 0 0 0-.7.8c-.09.072-.175.148-.26.224v-.448c.327-.274.654-.543.963-.816zm-.963.336v-.246l.377-.322c.116-.1.246-.332.4-.233l-.78.8zm0-21.284a3.038 3.038 0 0 0 .085-.412c.04-.233-.072-.619.059-.753.09-.224.287-.641.116-.927-.031.049-.121.332-.175.175A9.218 9.218 0 0 0 97.675 4a4.326 4.326 0 0 0-.318.887zm0-3.289v3.292A10.819 10.819 0 0 0 97 9.464v-3.11c.148-.466.238-.981.358-1.47zm0 4.226A2.4 2.4 0 0 1 97 10.221v.063a.3.3 0 0 1 .04-.036c.112.1.009.251-.04.408v.336a.815.815 0 0 0 .157-.224c.175.04-.054.126 0 .233a2.627 2.627 0 0 1-.157.529v1.56c.121-.3.238-.6.358-.9v-1.731a.57.57 0 0 1-.2.251 3.787 3.787 0 0 0 .2-.426V9.11zm0 4.086v.7c-.1.188-.188.363-.26.52a.978.978 0 0 0-.1.1v-.5c.116-.278.238-.546.358-.815zm0 1.268a1.573 1.573 0 0 0-.2.529 1.9 1.9 0 0 0 .2-.283v-.246zm0 5.919v.34c-.116.143-.238.291-.358.434v-.408c.121-.121.238-.246.358-.367zm0 .815v2.469c-.121.139-.238.278-.358.421v-2.519c.121-.121.242-.246.358-.367zm0 3.46v2.854c-.116.175-.238.35-.358.52v-2.972c.121-.134.242-.264.358-.4zm0 3.1c-.09.1-.179.21-.26.318a.51.51 0 0 1-.1.134v.91a3.439 3.439 0 0 1 .332-.291l.027-.04v-1.027zm0 1.452v.246c-.116.121-.238.242-.358.363v-.309c.121-.1.242-.2.358-.3zm0 .726v.448a3.907 3.907 0 0 0-.318.354l-.04.027v-.529c.121-.1.242-.2.358-.3zM97 15.63v-.05a.471.471 0 0 1 .1-.063zm0-9.275v3.11a3.192 3.192 0 0 0-.018.784c0-.009.014-.018.018-.027v.063c-.09.121-.134.439-.018.542a.367.367 0 0 1 .018-.171v.336c-.085.1-.152.206-.076.3.018.246-.2.462-.175.636a1.237 1.237 0 0 0-.166.206V9.491a1.1 1.1 0 0 0 0-.3V7.219A2.642 2.642 0 0 0 97 6.354zm0 5.175a.9.9 0 0 1-.193.283c.157.018-.018.556-.224.86v1.479c.143-.35.283-.708.417-1.062v-1.56zm0 2.482v.5c-.139.161-.228.377-.363.538.009-.045-.022-.054-.054-.054v-.036c.027-.076.148-.059.112-.2.1-.255.2-.506.3-.752zm0 1.568v.049a7.839 7.839 0 0 0-.417.583v-.322c.09-.108.184-.215.283-.314-.009.067-.1.13 0 .171A.616.616 0 0 1 97 15.58zm0 5.171v.408c-.139.166-.278.336-.417.5v-.395a.785.785 0 0 0 .112-.193l.3-.322zm0 .816c-.139.134-.278.273-.417.4V24.6q.208-.262.417-.511v-2.522zm0 3.49v2.975c-.022.036-.049.067-.076.1-.081.059-.3.269-.175.35a1.057 1.057 0 0 1 .251-.27v.91a4.48 4.48 0 0 0-.251.287l-.166.148v-.945l.054-.067-.054.027v-3.048c.139-.158.278-.315.416-.467zm0 4.454l-.417.35v.377L97 29.82v-.309zm0 .726v.529a.83.83 0 0 0-.251.264 5.28 5.28 0 0 0-.166.143v-.587l.416-.35zm-.417-15.07a.387.387 0 0 0 .054-.116c.009-.045-.022-.054-.054-.054zm0-7.949V9.19a1.224 1.224 0 0 0-.063-.273.422.422 0 0 0-.022.036V7.291a.2.2 0 0 0 .022 0c.023-.022.04-.05.063-.077zm0 2.272v2.644a1.059 1.059 0 0 0-.085.175V9.831a1.492 1.492 0 0 0 .085-.34zm0 3.181v1.479c-.027.067-.059.139-.085.21v-1.581a1.057 1.057 0 0 0 .085-.107zm0 2.29V15a.069.069 0 0 1 0-.032zm0 .035l-.083.104v.175c.027-.036.059-.067.085-.108V15zm0 .892v.322c-.027.049-.059.094-.085.139V16l.085-.111zm0 5.377v.395a1.298 1.298 0 0 1-.085.1v-.4a.861.861 0 0 0 .085-.1zm0 .7V24.6c-.027.036-.059.072-.085.108v-2.662c.027-.027.059-.054.085-.081zm0 3.558v3.047l-.085.059v-3.011c.027-.032.059-.063.085-.095zm0 3.087a1.298 1.298 0 0 1-.085.1v.919a.987.987 0 0 0 .085-.076v-.946zm0 1.25v.377c-.027.031-.059.059-.085.085v-.385c.027-.027.059-.05.085-.077zm0 .726v.587a.707.707 0 0 0-.085.076v-.587c.026-.026.057-.049.084-.075zm-.243-15.01zm.16-8.286v1.662c-.049.076-.1.148-.157.22V7.227a.571.571 0 0 0 .157.063zm0 2.541v2.478a1.413 1.413 0 0 0-.094.542.337.337 0 0 0 .094-.072v1.582c-.054.116-.1.238-.157.354v-1.321a1.427 1.427 0 0 0 0-.193V10.15a2.436 2.436 0 0 0 .157-.319zm0 5.269c-.054.063-.1.126-.157.188v.287a.461.461 0 0 1 .152-.3V15.1zm0 .9v.35c-.054.085-.1.171-.157.255v-.4c.054-.067.1-.134.157-.2zm0 5.364v.4c-.054.063-.1.126-.157.184v-.466a.763.763 0 0 0 .152-.112zm0 .681v2.662c-.054.067-.1.134-.157.2V22.18c.054-.04.1-.09.157-.134zm0 3.571v3.011c-.054.036-.1.076-.157.116v-2.952c.054-.057.1-.116.157-.174zm0 3.1c-.049.054-.1.1-.157.152v.9c.054-.045.1-.09.157-.139v-.919zm0 1.223v.385c-.054.049-.1.1-.157.152v-.4c.054-.045.1-.09.157-.134zm0 .726v.587c-.054.049-.108.1-.157.152v-.6c.054-.045.1-.09.157-.134zm-.157-5.534v-.018a.017.017 0 0 1 0 .014zm0-20.115v-.244a.384.384 0 0 1 .121.322c-.067.009-.1-.014-.116-.059a.039.039 0 0 0-.008-.021zm-.211 10.772a1.919 1.919 0 0 1 .21-.21 3.786 3.786 0 0 1-.21.466v-.26zm.208-11.016v.242c-.018-.085-.152-.063-.112-.206.035-.054.076-.059.112-.036zm0 2.456v1.945a9.77 9.77 0 0 1-.21.255v-2.4a.684.684 0 0 0 .21.2zm0 2.921V13.2c-.067.13-.139.269-.21.417v-3.132c.071-.112.148-.224.21-.336zm0 3.244a2.235 2.235 0 0 1-.21.748v1.035c.072-.148.143-.3.21-.462v-1.32zm0 1.9a3.386 3.386 0 0 0-.171.228.49.49 0 0 0-.04.049v.22a1.917 1.917 0 0 1 .21-.21v-.287zm0 .914v.4c-.072.121-.143.242-.21.363v-.5c.071-.085.143-.175.21-.269zm0 5.279v.466c-.072.09-.139.175-.21.26v-.43c.071-.095.148-.194.21-.3zm0 .7a4.063 4.063 0 0 1-.21.184v2.83c.067-.094.139-.193.21-.287V22.18zm0 2.931v.018c-.13.076-.13.291-.21.421v-.238a.191.191 0 0 0 .04-.072c.017-.05.147-.238.17-.13zm0 .681v2.953a2.087 2.087 0 0 0-.21.188v-2.9c.067-.081.138-.161.21-.242zm0 3.074a4.063 4.063 0 0 1-.21.184v.914c.072-.063.139-.13.21-.193v-.9zm0 1.205v.4c-.067.067-.139.134-.21.206v-.417c.067-.067.138-.129.21-.192zm0 .726v.6a5.45 5.45 0 0 0-.21.246v-.663a6.49 6.49 0 0 1 .21-.188zm-.211-24.848a.415.415 0 0 0 .04-.224 4.008 4.008 0 0 0-.04-.95zm-.564 10.615c.027-.045.054-.085.085-.13a6.3 6.3 0 0 1 .479-.654v.26c-.175.318-.377.6-.564.9v-.381zm.564-11.79v1.175c-.072.134-.193.21-.188.412-.2.063-.094-.179-.116-.287a2.236 2.236 0 0 0-.175.695c.027.094.206-.139.175-.291.108.175.184.385.3.546v2.4a2.646 2.646 0 0 0-.421.587.892.892 0 0 0-.143.354V6.447a4.48 4.48 0 0 0 .377-1.931c.116.018.112.157.171.233a.094.094 0 0 1 .017.032zm0 5.7v3.137a6.481 6.481 0 0 0-.564 1.542v-3.652c.045-.112.094-.224.143-.332a4.662 4.662 0 0 1 .421-.69zm0 3.656c-.179.381-.417.748-.564 1.125v.95a2.736 2.736 0 0 0 .2-.3v-.059q.189-.33.363-.686v-1.024zm0 1.425a4.793 4.793 0 0 0-.3.412c-.085.13-.175.26-.26.39v.137c.027-.022.054-.04.085-.063a6.3 6.3 0 0 1 .479-.654v-.219zm0 .9a3.69 3.69 0 0 1-.188.2c.054.014.045-.027.054-.059a4.626 4.626 0 0 1-.43.713v.6c.193-.3.377-.627.564-.955v-.5zm0 5.306v.43l-.363.43a9.56 9.56 0 0 0 .363-.273V25.2l-.076.1c-.2.108-.26.354-.4.52-.027.049-.059.1-.085.148v-3.51c.175-.237.377-.452.564-.681zm0 3.536c-.1.116-.3.242-.188.336a.219.219 0 0 0 .188-.1v-.238zm0 .721v2.9a1.008 1.008 0 0 0-.246.3l.246-.188v.914c-.193.171-.381.345-.564.515V26.7c.063-.081.13-.161.2-.246.121-.139.238-.278.363-.421zm0 4.23c-.2.175-.385.358-.564.542v.404c.188-.171.377-.345.564-.52v-.417zm0 .721v.663l-.018.018a9.212 9.212 0 0 1-.546.479v-.637c.179-.163.372-.342.564-.513zm-.909-13.903c.045-.076.09-.152.139-.224a1.277 1.277 0 0 0 .206-.278v.381l-.148.242a.625.625 0 0 0-.2.233v-.354zm.345-10.624v3.921a1.135 1.135 0 0 1-.148.4 4.905 4.905 0 0 1-.2.462V8.5a3.964 3.964 0 0 0 .314-1.492 6.266 6.266 0 0 1-.314.753v-.52c.031-.094.054-.2.081-.291a4.872 4.872 0 0 0 .264-.5zm0 5.059c-.126.291-.233.587-.345.878v4.4c.049-.063.238-.215.255-.291-.04-.072.014-.175.09-.283v-.95a.36.36 0 0 0-.031.076c.009-.059.018-.116.031-.179v-3.651zm0 4.862l-.09.13c-.018.076-.206.228-.255.291v.027a.258.258 0 0 0 .081-.027 1.15 1.15 0 0 1 .264-.287v-.134zm0 .958c-.112.161-.228.336-.345.511v.574a5.954 5.954 0 0 0 .345-.489v-.6zm0 5.131v3.509a9.339 9.339 0 0 1-.345.511v-3.137c.108-.116.21-.238.314-.358-.1-.085-.179.134-.314.238v-.278c.09-.121.157-.255.255-.363.027-.041.059-.082.09-.122zm0 4.244v3.778l-.345.318v-3.67c.116-.139.228-.283.345-.426zm0 4.1v.398c-.116.1-.228.2-.345.3v-.314c.112-.13.224-.255.345-.381zm0 .7v.636c-.116.094-.228.188-.345.278v-.564c.112-.116.228-.232.345-.349zM95.22 22.8c.049-.072.094-.148.139-.224a.266.266 0 0 0 .059-.175 1.021 1.021 0 0 0-.2.166v.233zm0-5.915c.027-.036.054-.067.081-.1a.258.258 0 0 1-.081.027v.072zm0-9.952l.027-.045a6.028 6.028 0 0 0 .228-1.913c-.085.26-.171.52-.255.784zm-.439 11.126a7.927 7.927 0 0 1 .439-.99v.354l-.09.175a1.446 1.446 0 0 1-.35.461zm.439-12.3v1.177a4.126 4.126 0 0 1-.148.417 5.155 5.155 0 0 0-.524 1.447c-.13.116-.018.479-.054.695a.25.25 0 0 0 .112-.233c.139-.654.372-1.21.524-1.851a.512.512 0 0 0 .09-.171v.52a2.326 2.326 0 0 0-.264 1.56c.067-.264.171-.538.264-.82v2.729a12.619 12.619 0 0 0-.843 1.972c-.161.108-.134.408-.233.578a1.876 1.876 0 0 1-.059.179V9.526C94.494 8.3 94.834 7 95.22 5.762zm0 6.623a7.807 7.807 0 0 1-.672 1.452 5.765 5.765 0 0 0-.462 1.022v3.624a12.466 12.466 0 0 1 1.134-1.591v-.072c-.014 0-.014-.009 0-.027v-4.405zm0 4.4v.027c-.014 0-.014-.009 0-.027zm0 1.049a4.236 4.236 0 0 0-.556 1.151 3.117 3.117 0 0 0 .556-.578v-.573zm0 4.732v.237a.832.832 0 0 1-.09.121c-.309.354-.636.676-.927 1.044a1.172 1.172 0 0 1-.116.1v-.385a7.893 7.893 0 0 0 .52-.641c-.049.027-.1.054-.112.116h-.059c.09-.255.5-.193.578-.462a.425.425 0 0 0 .206-.124zm0 .372c-.009.014-.022.027-.031.04.009.143-.094.179-.116.291a.2.2 0 0 0 .148-.054v-.278zm0 .4a49.53 49.53 0 0 1-1.134 1.246v3.54a17.561 17.561 0 0 1 1.134-1.649v-3.131zm0 3.786V30.8c-.377.354-.757.708-1.134 1.067v-3.579a6.047 6.047 0 0 0 1.134-1.161zm0 4.06a5.526 5.526 0 0 0-.556.77c.188-.148.377-.3.556-.457v-.314zm0 .672a7.955 7.955 0 0 0-1.134 1.492v.055a14.683 14.683 0 0 1 1.134-.977v-.564zm-1.134.726v-.063l.059-.045a1.217 1.217 0 0 1-.059.108zm0-12.573v-.255a1.815 1.815 0 0 1 .408-.363 3.948 3.948 0 0 1-.408.624zm0-10.485v4.432a2.375 2.375 0 0 0-.175.632c-.067.264-.251.619-.287.882V10.8c.166-.416.319-.842.462-1.277zm0 5.332a2.339 2.339 0 0 1-.462.775v3.755a.617.617 0 0 1 .059-.054 5.069 5.069 0 0 1 .4-.856v-3.614zm0 4.9v.255a5.482 5.482 0 0 1-.462.511v-.215c.157-.184.309-.381.462-.551zm0 3.925v.385a.846.846 0 0 0-.345.421c-.04.022-.081.049-.116.072v-.4c.156-.157.313-.314.461-.475zm0 .9v3.54c-.04.081-.081.161-.116.242.04-.027.081-.054.116-.081v3.576c-.134.126-.269.255-.4.381a.7.7 0 0 0-.059.049v-7.219c.157-.157.309-.318.462-.48zm0 7.936v.063a3.869 3.869 0 0 1-.462.619v-.228a5.376 5.376 0 0 1 .462-.453zm0 .829v.057a.739.739 0 0 0-.059.059c.018-.036.04-.072.059-.108zm-.462.475v-.076l.175-.121c-.031.107-.116.143-.175.205zm0-23.023v4.669a.5.5 0 0 0 0 .161v3.755a2.112 2.112 0 0 0-.408.815c.072.121.2-.184.35-.175-.054.184-.309.462-.233.583a3.833 3.833 0 0 0 .291-.3v.215a5.571 5.571 0 0 1-.35.318c-.063-.014-.04-.112-.116-.116a25.264 25.264 0 0 1-6.6 4.831v-1.072c.417-.291.829-.6 1.224-.919a16.259 16.259 0 0 0 1.505-1.448 12.51 12.51 0 0 0 1.505-1.443c.09-.143.4-.825.228-.641-1.017 1.34-2.469 2.24-3.589 3.477.072.009.166-.014.175.054-.35.238-.7.479-1.049.717v-3.091c1-1.564 3.1-2.039 3.943-3.76-.036-.175-.09-.336-.287-.345a2.758 2.758 0 0 0 .578-1.1c.036-.1.175-.094.228-.175.493-.444 1.151-1 1.1-1.792.395-.591 1.062-1.214.986-2.084a20.635 20.635 0 0 1-2.2 3.817c-.076.022-.094.1-.175.116.981-1.174 1.358-2.962 2.316-4.167.157-.157.054.085.171.116-.027-.184.085-.228.116-.35.059 0 .045-.067.059-.112.081-.177.157-.362.233-.545zm0 13.353c-.479.462-.981.9-1.448 1.375-.067.242-.273.34-.35.578a13.515 13.515 0 0 1 1.8-1.55v-.4zm0 .91c-.47.479-.95.945-1.448 1.389.148-.09.2-.161.175-.054-.13.452-1.515 1.259-2.03 1.617a7.063 7.063 0 0 1-1.505 1.389c-.049.22-.439.26-.462.466-.014.134.3.228.291.462a2.478 2.478 0 0 1-.408.636 8.87 8.87 0 0 1-1.676 1.1h-.009v3.468a18.334 18.334 0 0 0 2.034-1.622 6.1 6.1 0 0 1-2.034 2.057V38.4a53.1 53.1 0 0 0 4.87-3.029c-.009.067-.1.13 0 .175a17.3 17.3 0 0 0 1.566-1.046 3.2 3.2 0 0 1 .578-.578.181.181 0 0 1 .059-.094v-.076a26.444 26.444 0 0 1-2.2 1.56c.22-.242.4-.524.636-.753 0-.036-.009-.067-.059-.058-.121.094-.43.3-.52.233a10.549 10.549 0 0 1 1.622-1.9 3.1 3.1 0 0 1 .52-.533v-7.235zm0 7.909v.233a8.571 8.571 0 0 1-1.219 1.067c-.157-.054.134-.13.116-.233a7.559 7.559 0 0 0 .869-.865 1.653 1.653 0 0 0 .233-.2zm-7.07-1.6v-.395a8.921 8.921 0 0 0 1.568-.986 6.373 6.373 0 0 1-1.568 1.38zm0-.533v-.148h.009a3.413 3.413 0 0 1 .695-.408c-.228.193-.457.381-.7.56zm0-10.27a4.537 4.537 0 0 1 .3-.363c.963-1.071 2.5-1.649 3.186-2.895-.152.063-.2.228-.35.291-.175.13-.336.283-.52.4-.121.072-.171.22-.35.233a2.744 2.744 0 0 1 .524-.52c.04-.134.193-.157.228-.291-.081.014-.094.094-.171.116a4.852 4.852 0 0 1-.695.695c-.014.215-.283.426-.583.52-.507.377-1.008.739-1.568 1.129v.681zm0-.681v.681a.9.9 0 0 0-.166.91c.049-.1.108-.2.166-.291v3.092a23.191 23.191 0 0 1-2.075 1.313c0-.027.036-.112.054-.116a5.791 5.791 0 0 0-1.967 1.214c-.228.022-.479.022-.52.233a.976.976 0 0 0 .578-.233 12.62 12.62 0 0 0 1.505-.869 10.008 10.008 0 0 0 2.424-1.34v1.075a47.269 47.269 0 0 1-7.053 2.933 2.8 2.8 0 0 0-1.909.865c.04-.188.587-.426.35-.52-.542.2-1.371.1-1.913.3v-2.208a12.084 12.084 0 0 0 1.277-.35 6.2 6.2 0 0 0-1.277.134v-2.513a34.921 34.921 0 0 0 5.149-1.438c1.062.139 2.917-1.151 3.764-1.739.6-.417 1.129-.784 1.613-1.129zm0 10.8v.148a5.676 5.676 0 0 1-.574.367c-.112.1-.287.134-.345.287.126-.085.309-.112.4-.228.171-.1.345-.193.515-.287v.395c-1.7 1.125-3.934 1.949-5.261 3.3-.228.238-.676.695-.4 1.156 1.1-1.546 3.746-2.626 5.66-3.755v3.468c-1.505 1.057-3.137 1.99-4.624 3.065-.269.116.054.085.116.175-.856.34-1.331 1.057-2.371 1.219a.479.479 0 0 1-.228.4c-1.143.452-2.334.856-3.419 1.367v-5.227c1.277-.636 2.46-1.367 3.764-1.976a1.7 1.7 0 0 1 .578-.287c.8-.439 1.694-.775 2.428-1.273a11.536 11.536 0 0 0 1.273-.695c.327-.157.65-.314.986-.462.179-.054.269-.193.462-.233-.067-.157-.591.273-.291 0 .238-.112.421-.273.641-.4a3.972 3.972 0 0 0 .685-.515zm0 5.287c-.546.39-1.129.77-1.672 1.187a45.4 45.4 0 0 1-8.854 4.943v1.116a37.87 37.87 0 0 0 1.855-.735c.968-.412 1.86-.941 2.837-1.331a53.023 53.023 0 0 0 5.834-2.76zM76.028 24.193v2.514a12.791 12.791 0 0 0-1.273.332 5.893 5.893 0 0 0 1.273-.116v2.209c-.04.014-.076.031-.116.049.184-.184-.193-.1-.345-.116a9.79 9.79 0 0 0-2.895-.869c.09-.233-.13-.157-.26-.171V27.9a.816.816 0 0 0 .2-.228c.462-.179.86-.887.116-1.044.126-.143.4-.139.52-.287.1-.076.228-.121.233-.291h-.52c.112-.676 1.089-.493 1.273-1.1-.224-.161-.578.036-.811.054.224-.121.112-.4.175-.578a16.888 16.888 0 0 0 2.428-.237zm0 12.341v5.238a9.61 9.61 0 0 0-1.792 1.067 2.641 2.641 0 0 0-.986.4 1.625 1.625 0 0 0 .986-.345c.6-.26 1.192-.52 1.792-.789v1.116a68.394 68.394 0 0 1-3.616 1.21v-6.724c.108-.027.166-.036.085.152.067.009.1-.014.116-.059a14.539 14.539 0 0 0 3.414-1.268zm-3.616-9.908a.527.527 0 0 0 .085-.112h-.085v.112zm0-.112h.088c.063-.027.009-.049-.085-.059zm0-.058v.059h-.434c0 .139-.1.171-.059.35a.976.976 0 0 0 .493-.238v-.112h-.434c.013-.068.278-.081.434-.059zm0 1.447v.121c-.045 0-.081-.018-.09-.063a.612.612 0 0 0 .09-.058zm0 9.8v6.726c-.3.094-.6.184-.9.273V37.94c.21-.067.421-.134.636-.2a.7.7 0 0 0 .26-.035zm-.9-9.607c.493-.314 1.008-.762.287-1.062-.166.04.054.475-.116.52.014.112-.067.13-.171.126zm0-.416v.42c-.179.112-.35.206-.466.269-.022-.112-.224-.045-.171-.233s.434-.063.287-.462a1.292 1.292 0 0 1 .35.009zm0 10.256v6.766c-.963.291-1.936.569-2.895.851a17.38 17.38 0 0 1-2.725.695c-.466.063-1.214.085-1.792.175a2.084 2.084 0 0 0-.26.058V43.6a15.6 15.6 0 0 0 1.882-.538 16.915 16.915 0 0 0-1.882.283v-3.021c2.715-.601 5.16-1.578 7.676-2.384zM63.84 40.32v3.025a14.4 14.4 0 0 0-1.479.39v-.275c.108-.022.21-.054.233-.161a.941.941 0 0 0-.233.027v-2.72q.753-.121 1.479-.283zm0 3.28a14.54 14.54 0 0 1-1.479.238v2.308a1.6 1.6 0 0 1 .466.045c.224.076.345.314.578.345a1.053 1.053 0 0 0 .434-.054zm-1.479-3v2.72a.267.267 0 0 0-.228.206.688.688 0 0 1 .228-.072v.278c-.134.045-.269.09-.4.139.134-.009.273-.022.4-.036v2.308a1.279 1.279 0 0 1-.228-.014 19.971 19.971 0 0 0-3.244-.462c-.067-.085-.251-.058-.175-.291-.081.031-.3-.067-.287.059H58.2v-.184c.367-.479 1.049-.641 1.273-1.263-.094-.35-.511-.372-.865-.462.367-.269.932-.345 1.156-.753-.13-.112-.47.067-.753 0v-.291c-.058-.193.179-.09.291-.116.332-.632 1.349-.578 1.734-1.156-.363-.462-.914.139-1.448.059.13-.1.358-.108.291-.408a21.505 21.505 0 0 0 2.488-.259zM58.2 43.5a.86.86 0 0 0 .116-.139H58.2zm0-.139v.139a1.9 1.9 0 0 1-.811.439.825.825 0 0 1 .116-.578zm0 1.9v.184h-.116a1.074 1.074 0 0 1 .116-.184zm-2.259.35v-.059c.027-.121.291-.014.408-.049.036-.215-.148-.367 0-.52h.175c.188-.059.627.126.636-.116a6.4 6.4 0 0 0-.058-.753.9.9 0 0 1 .865.462c-.179.255-1.716 2.034-2.025 1.044z" class="cls-3" data-name="Trazado 24" transform="translate(-52.459)"/>
        <path id="Trazado_25" d="M47.793 30.55a15.661 15.661 0 0 0 2.057-3.67c1.851-2.142 3-4.983 4.687-7.29.233.076.484.13.578.345-1.246 2.921-3.155 5.18-4.342 8.164-.116.094-.143.278-.228.4.116.116.2-.3.287-.4 1.546-2.6 2.975-5.328 4.633-7.815a5.119 5.119 0 0 1-.869 2.142 7.183 7.183 0 0 0-.869 2.2 27.307 27.307 0 0 0 1.913-3.648 2.332 2.332 0 0 1-.175 2.2c-.775 1.613-1.927 3.2-2.895 4.8-.99 1.631-2.4 2.921-3.356 4.284-.04-.193.3-.511.4-.753.493-.838.972-1.689 1.448-2.545a1.321 1.321 0 0 0 .291-.641 3.17 3.17 0 0 0-.35.583c-.462.887-1.039 1.662-1.448 2.6a7.881 7.881 0 0 0-.636.986c-.372.457-.748.914-1.129 1.367v-.706c.251-.148.439-.69.668-.95.3-.457.587-.914.865-1.389a.917.917 0 0 0 .175-.233 7.809 7.809 0 0 1 .695-.865c-.054-.143-.434.412-.345.228.054-.291.255-.434.345-.695a3.967 3.967 0 0 0 .35-.636 2.07 2.07 0 0 0-.408.578c-.175.363-.4.681-.578 1.044-.134.076-.184.238-.291.345-.475.578-.99 1.125-1.474 1.7v-1.73zm0-2.2v2.039a2.059 2.059 0 0 0 .085-.206c.072-.188.027-.448.116-.636.224-.479.807-.807.869-1.389-.063-.322-.3.4-.462.171a10.259 10.259 0 0 0 1.564-3.414c-.5.726-.91 1.577-1.448 2.375-.21.309-.461.69-.726 1.061zm0 4.1v.627a7.482 7.482 0 0 1 .609-.869c.09-.336.479-.672.462-.927-.35.4-.708.789-1.071 1.169zm0 3.822c.085-.1.175-.2.26-.3.591-.739 1.1-1.568 1.68-2.316a.163.163 0 0 0 .116-.175c.3-.408.533-.892.865-1.273.134-.233.2-.533.408-.695a.96.96 0 0 1 .175-.345 12.154 12.154 0 0 0 .865-1.622c-.4.43-.731 1.224-1.273 1.331a6.212 6.212 0 0 1-1.504 2.023c-.533.6-1.026 1.255-1.591 1.828v1.541zm0-10.033a.067.067 0 0 0 .031 0 1.314 1.314 0 0 0 .054-.52c-.036-.009-.049-.04-.085-.054v.569zm9.235-3.988c.072-.731.825-1.286.578-1.967a15.759 15.759 0 0 0-1.68 3.934c.372-.708.654-1.505 1.044-2.2.009.09-.022.215.058.233zm-9.669 9.088c.018-.04.04-.076.058-.116.121-.233.246-.452.377-.672v1.734c-.148.179-.291.358-.434.542v-1.488zm.434 2.527v-.708a.357.357 0 0 1-.085.036c.027-.04.059-.076.085-.116v-.628c-.143.152-.287.3-.434.452v1.483c.147-.175.291-.345.434-.52zm-.434-4.947v2.173a4.259 4.259 0 0 0 .434-.7V28.35c-.139.2-.287.39-.434.569zm.434-3.249v.569c-.063-.04-.014-.193-.085-.224a.488.488 0 0 1 .059-.35h.027zm0 9.06v1.542c-.148.179-.291.358-.434.542v-1.6c.076-.094.157-.188.233-.283.067-.062.134-.129.2-.2zm-.434-8.648v-.556c.1-.171.184-.255.175-.094a6.666 6.666 0 0 1-.175.65zm-2.2 9.02a34.9 34.9 0 0 0 2.2-3.764v1.487a.888.888 0 0 1-.059.076c-.421.385-.762.86-1.156 1.273-.2.287-.5.47-.695.753-.1.04-.385.377-.291.233v-.058zm2.2-.717V32.9a14.421 14.421 0 0 1-1.039 1.156c-.524.708-1.035 1.43-1.55 2.146v1.219c.86-1.018 1.729-2.021 2.59-3.038zm-2.59-.663v2.227l.045-.094c-.009-.184.152-.193.116-.4a.577.577 0 0 1 .171-.35c.444-.892.726-1.766 1.219-2.6a16.056 16.056 0 0 1 1.039-1.407v-2.18a3.856 3.856 0 0 1-.695.686c-.4.874-.789 1.756-1.214 2.6h.058c.094-.1.157-.4.345-.233a3.192 3.192 0 0 1-1.084 1.748zm2.59-8.2v.556a6.879 6.879 0 0 1-.753 1.55c-.1.112-.157.269-.287.35 0-.233.112-.35.112-.578.108-.009.036-.2.116-.233.126-.251.283-.627.466-.986.081-.157.229-.462.345-.659zm0 9.684c-.843 1.026-1.725 2.012-2.59 3.016v.663c.5-.507 1-1.008 1.492-1.528.054-.215.251-.287.345-.466.081-.094.269-.381.35-.287-.112.1-.179.246-.291.345-.143.148-.228.354-.4.466-.493.614-.99 1.228-1.492 1.837v.448c.65-.668 1.291-1.393 1.954-2 .206-.3.417-.6.636-.892v-1.6zm-2.59-3.352c.479-1.075.99-2.124 1.434-3.24-.054-.175.081-.448 0-.462-.04.134-.193.152-.233.287a12.858 12.858 0 0 0-1.2 2.438zm0 5.565c-1.049 1.237-2.079 2.487-3.051 3.8v-1a9.378 9.378 0 0 0 1.532-1.931 1.26 1.26 0 0 0 .345-.524c.4-.511.789-1.035 1.174-1.56v1.219zm-3.051.847v1.6a7.327 7.327 0 0 1 1.241-1.411c.143-.242.421-.35.524-.636 0-.6.358-.833.636-1.156.171-.287.489-.426.65-.717v-2.224c-.045.054-.09.108-.13.166-.9 1.026-1.456 2.707-2.433 3.473a14.778 14.778 0 0 1 1.331-2.375c-.009.031 0 .072-.054.059-.121.21-.345.314-.466.52-.108.143-.175.327-.345.408a1.446 1.446 0 0 1-.35.462c-.2.238-.4.47-.6.7v.238a7.08 7.08 0 0 0 .43-.65 2.343 2.343 0 0 1-.43.9v.4a1.535 1.535 0 0 1 .318-.269 4.789 4.789 0 0 1-.317.507zm3.051-7.389v.977c-.188.421-.367.843-.533 1.277a2.093 2.093 0 0 0-.583.695c-.143.1-.161.336-.345.4a25.179 25.179 0 0 0 1.461-3.352zm0 7.344c-.762.882-1.515 1.779-2.214 2.725a2.624 2.624 0 0 0 1.039-.869 3.874 3.874 0 0 1 .641-.636c.175-.188.354-.372.533-.556v-.663zm0 1.031q-.726.88-1.461 1.752a11.069 11.069 0 0 0 1.461-1.3v-.448zm-3.051 3.607v-.377a5.316 5.316 0 0 0 .9-.843c.233.018.327-.4.462-.291-.444.516-.9 1.018-1.358 1.51zm0-.909c.152-.175.3-.354.43-.542-.049.027-.1.054-.112.116h-.058c-.09.076-.175.148-.26.224v.2zm0-.735l-.148.193a8.6 8.6 0 0 0-.923.927c-.157.13-.314.269-.466.4v-.887a1.359 1.359 0 0 0 .466-.5 2.3 2.3 0 0 0-.466.358V39.62c.179-.171.35-.345.52-.524.076 0 .054.1.116.116a5.786 5.786 0 0 0 .9-.941v1.6c-.246.34-.479.686-.726 1.022a2.412 2.412 0 0 0-.233.291c.063.108.233-.152.291-.233.215-.251.439-.489.668-.731v1zm0-3.186v-.4c-.148.215-.3.417-.434.6a2.1 2.1 0 0 1 .434-.856v-.238a29.53 29.53 0 0 0-.493.569 1.851 1.851 0 0 0-.466.869c.072.121.2-.184.35-.175-.054.184-.309.462-.233.583.282-.26.569-.663.842-.95zm0 3.719a9.122 9.122 0 0 1-1.3.99 4.26 4.26 0 0 1-.233.264v.444c.52-.493 1.062-.959 1.537-1.5v-.2zm0 .734c-.067.049-.134.094-.206.143a.513.513 0 0 1-.228.228 6.9 6.9 0 0 0-1.1.856v.69c.529-.5 1.039-1.013 1.537-1.542v-.376zm-1.537.256c-.6.542-1.183 1.107-1.779 1.654v-3.218a21.809 21.809 0 0 0 1.778-1.554v2.092a3.531 3.531 0 0 1-.462.395 3.292 3.292 0 0 0 .462-.251v.887zm0 .264a4.114 4.114 0 0 1-.462.43c-.278.515-.914.977-1.044 1.448a7.456 7.456 0 0 1 1.044-.981c.148-.157.3-.3.462-.452v-.444zm0 .708c-.273.251-.538.511-.811.766-.175.21-.264.507-.52.636-.031.085-.085.148-.116.233a.5.5 0 0 1-.233.228.348.348 0 0 1-.1.188v.161c.421-.381.9-.717 1.318-1.1.157-.139.309-.278.462-.421v-.689zm-1.779-4.8v-.3c.054-.067.108-.134.157-.206.141-.152-.041.265-.159.507zm0 5.485c-.067.059-.13.116-.2.175v-3.243c.067-.049.13-.1.2-.152V44.4zm0-5.79v.3c-.031.054-.054.1-.072.13-.04.054-.081.112-.126.166v-.372c.067-.076.13-.152.2-.228zm0 7.161v.161a1.667 1.667 0 0 0-.188.175s0-.009-.009-.014v-.1a1.057 1.057 0 0 1 .2-.224zm-.2-.426v-.094s0-.009.009-.014a.129.129 0 0 1-.011.11zm0-.771a8.815 8.815 0 0 1-.224.2c-.22.188-.43.39-.632.6v-3.415c.291-.2.574-.412.856-.627v3.243zm-.856 2.089c.081-.027.179-.036.228-.094.076-.059.215-.054.228-.175h.059a6.272 6.272 0 0 1-.515.574v-.3zm.856-7.824v.372a7.243 7.243 0 0 1-.856.8V39.7a11.883 11.883 0 0 0 .856-.861zm0 6.413a1.947 1.947 0 0 1-.511.448 3.834 3.834 0 0 1-.345.385v.22a5.1 5.1 0 0 1 .457-.426c.049-.2.332-.372.4-.529v-.094zm0 .744v.1a.109.109 0 0 1-.002-.1zm-.856-.623a7.421 7.421 0 0 0-.408.444 12 12 0 0 0-1.389 1.68c.143.121.372-.166.52-.233.045.26-.444.484-.52.811a7.628 7.628 0 0 0 1.676-1.331.18.18 0 0 1 .121-.081v.3a7.57 7.57 0 0 1-.99.815 9.282 9.282 0 0 1-1.219.6v-5.016c.766-.439 1.5-.9 2.209-1.4v3.414zm0-5.673c-.735.668-1.524 1.281-2.209 2v.22a.035.035 0 0 1 0 .018v.139c.059-.049.121-.094.179-.143a16.261 16.261 0 0 0 1.505-1.448c.171-.171.35-.327.524-.475V39.7zm0 6.385a4.476 4.476 0 0 0-.874.945 7.173 7.173 0 0 1 .636-.462c.076-.094.157-.179.238-.269zm-2.209 2.3a1.9 1.9 0 0 0-.34.264 3.414 3.414 0 0 0-.695.408 2.687 2.687 0 0 0-.695.462 1.692 1.692 0 0 0-.641.4.252.252 0 0 0-.228.116 8.1 8.1 0 0 0-.927.578c-.448.206-.847.466-1.273.695-.825.426-1.7.811-2.487 1.273a3.407 3.407 0 0 0-.636.287c-.762.3-1.5.614-2.232.937v-1.311q.914-.5 1.828-1.062c.878-.538 1.658-1.21 2.54-1.851 1.268-.919 2.59-1.542 3.3-2.778.233-.278-.354.188-.408.345C30.214 48.6 28.09 49.966 26 51.369h-.059c-.09.206.2.036.175.175a6.945 6.945 0 0 0-1.134.672v-3.6a.266.266 0 0 0 .031.036 4.822 4.822 0 0 1 2.025-1.792 44.855 44.855 0 0 0 8.1-3.5v5.027zm-10.152-1.071v.636a.907.907 0 0 1 .148-.224c.04-.188.587-.426.35-.52a2.343 2.343 0 0 1-.5.108zm10.154-5.615v.22c-.022-.045-.108-.031-.171-.036.059-.063.113-.125.171-.184zm0 .242c-1.026.69-2.012 1.42-3.119 2.025-.157.036-.224.166-.35.228a13.387 13.387 0 0 0 3.468-2.115zm-10.154 11.87c-1.644.735-3.253 1.5-5 2.133-.085.067-.238.072-.287.175-3.733 1.138-7.268 2.756-11.668 3.087v-2.863a13.831 13.831 0 0 0 2-.574c-.686.085-1.358.179-2 .309V52.65a68.688 68.688 0 0 0 8.6-2.263c.206 0-.121.188.059.171 2.725-.533 4.534-1.985 6.771-3.007a5.434 5.434 0 0 1 1.532-.242v.636a.649.649 0 0 0 0 .668v3.6a3.193 3.193 0 0 1-1.241.538c-.045.13-.031.314-.175.35-1.734.731-3.7 1.237-5.037 2.375-.09.081-.269.076-.345.171a2.172 2.172 0 0 0-.927.35 2.387 2.387 0 0 0 1.044-.291c.085-.067.238-.072.287-.171 2.232-.963 4.32-1.9 6.394-3.047v1.317zM8.025 59.2c-.2.014-.4.027-.6.036a7.03 7.03 0 0 0-.927-.322v-2.325a15.548 15.548 0 0 0 1.532-.251V59.2zm-1.532-6.308v3.15a.216.216 0 0 1 .233.014c-.031.09-.126.121-.233.139v.273a13.98 13.98 0 0 1 1.532-.395V52.65q-.746.134-1.532.242zm0 6.022a15.786 15.786 0 0 0-3.593-.488c-.193.063-.09-.179-.116-.287a1.378 1.378 0 0 0-.47.054v-.22a4.668 4.668 0 0 1 .529-.412 2.7 2.7 0 0 0 .695-.753c-.059-.385-.381-.511-.811-.524.395-.26.923-.385 1.161-.807-.233.036-.619-.076-.753.059.022-.945 1.6-.829 1.967-1.622-.363-.3-.977.085-1.389.116.318-.067.314-.363.233-.695.636-.045 1.291-.278 1.851-.35.233-.027.466-.059.695-.094v3.15a.52.52 0 0 0-.233.188 2 2 0 0 1 .233-.036v.273c-.157.054-.314.108-.462.166.157-.014.309-.027.462-.045v2.326zM2.316 56.2c.022-.027.045-.059.067-.085h-.067zm0 1.994a.188.188 0 0 1-.049 0 .191.191 0 0 1 .049-.224v.22zm0-2.079v.085a1.259 1.259 0 0 1-.86.434c-.018-.228.134-.291.116-.52zM0 58.43v-.059c0-.018 0-.036.009-.059.085-.09.3-.054.466-.058 0-.193-.1-.291-.059-.524h.059c.242-.04.686.108.748-.112.26-.273-.3-.739.059-.927-.116.345.676.242.753.578-.224.762-1.1.865-1.505 1.448-.198-.077-.508-.036-.53-.287z" class="cls-4" data-name="Trazado 25" transform="translate(0 -18.371)"/>
        <path id="Trazado_26" d="M201.15 155.827a1.106 1.106 0 0 1 .847.932q-.147 1.593-2.8 3.764a1.417 1.417 0 0 1-.538.045 49.635 49.635 0 0 0-7.286-1.43l-1.179-.166-.022.1h-.045q-1.109 2.608.108 3.562a24.2 24.2 0 0 0 4.324.847l.708.063.471.081 4.454.479c.739.148 1.089.479 1.031.99.045.014.072.112.085.287a6.237 6.237 0 0 0 .332 2.039 9.745 9.745 0 0 1-.063 1.756l-.291 1.761a6.244 6.244 0 0 1-4.987 4.432c-1.532.1-3.114.224-4.763.345l-.452-.036c-2.563-.345-4.239-1.161-5.01-2.424l-.246-.811.045-.291c.09-1.3.9-1.9 2.415-1.815q4.819 1.008 5.552 1.071l.5.045a19.98 19.98 0 0 0 3 .085q1.875-2.648-.045-3.625a11.624 11.624 0 0 0-3.809-.914l-4.226-.784a2.137 2.137 0 0 1-1.985-1.179l-.085-.6a5.42 5.42 0 0 1-.91-2.11 16.863 16.863 0 0 1-.085-3.208l.171-1.062c.318-1.362 1.336-2.155 3.065-2.379l.6.018 1.263.152 1.47.246.829.063a21.923 21.923 0 0 0 7.08-.291z" class="cls-2" data-name="Trazado 26" transform="translate(-174.265 -145.991)"/>
        <path id="Trazado_27" d="M423.809 123.62a4 4 0 0 1 3.383 2.151 1.243 1.243 0 0 1 .421.8v.076l-.126 1.6v10.512h.076A28.313 28.313 0 0 0 431 134.62a23.56 23.56 0 0 1 2.039-3.168 1.3 1.3 0 0 1 .878-.34c.78 0 1.393.623 1.833 1.86l.045.587v.072c0 1.322-.968 2.375-2.917 3.168a7.981 7.981 0 0 0-1.972 1.273v.027q1.021.551 1.022 1.224a15.061 15.061 0 0 0 2.536 4.548c0 .233.869 1.192 2.621 2.868.583.475.874.833.874 1.062 0 .363-.4.578-1.206.641a18.273 18.273 0 0 1-4.1-.91 2.76 2.76 0 0 1-.959-1.644 19.9 19.9 0 0 0-3.271-5.373c-.264-.26-.434-.395-.5-.395a1.378 1.378 0 0 0-.5.8 22.828 22.828 0 0 1-1.694 7.219 6.53 6.53 0 0 1-.919 2.178c-.1-.04-.143-.157-.143-.345l.188-1.936v-.157l-.5-4.042q-.222-2.386-.22-7.461l-.045-.878.045-.031-.045-.457v-1.833l-.031-.426.031-.04-.031-.569v-1.452l-.059-.72.049-.036-.049-.574v-1.2a5.3 5.3 0 0 0-1.487-3.773v-.112c.162-.435.596-.655 1.296-.655z" class="cls-5" data-name="Trazado 27" transform="translate(-396.215 -115.927)"/>
        <path id="Trazado_28" d="M444.894 119.09a3.985 3.985 0 0 1 3.383 2.151 1.241 1.241 0 0 1 .426.8v.081l-.126 1.6v10.511h.076a28.615 28.615 0 0 0 3.432-4.136 23.075 23.075 0 0 1 2.039-3.163 1.276 1.276 0 0 1 .878-.345c.78 0 1.393.623 1.833 1.864l.045.583v.072c0 1.322-.968 2.375-2.917 3.168a7.889 7.889 0 0 0-1.972 1.273v.027c.677.367 1.022.775 1.022 1.224a15.058 15.058 0 0 0 2.532 4.548c0 .233.874 1.192 2.621 2.868.583.475.878.833.878 1.062 0 .363-.408.578-1.21.641a18.439 18.439 0 0 1-4.1-.9 2.752 2.752 0 0 1-.959-1.649 19.815 19.815 0 0 0-3.271-5.368c-.264-.265-.434-.4-.507-.4a1.378 1.378 0 0 0-.5.8 22.829 22.829 0 0 1-1.689 7.223 6.45 6.45 0 0 1-.923 2.178c-.1-.045-.148-.161-.148-.35l.193-1.935v-.157l-.5-4.042q-.222-2.386-.22-7.461l-.049-.878.049-.031-.049-.457v-1.833l-.031-.421.031-.045-.031-.564v-1.469l-.045-.721.045-.031-.045-.578v-1.192a5.353 5.353 0 0 0-1.483-3.778v-.112c.164-.438.598-.658 1.292-.658z" class="cls-2" data-name="Trazado 28" transform="translate(-415.993 -111.678)"/>
        <path id="Trazado_29" d="M218.21 147.266a1.1 1.1 0 0 1 .843.932q-.147 1.593-2.792 3.764a1.417 1.417 0 0 1-.538.045 49.636 49.636 0 0 0-7.286-1.43l-1.179-.166-.022.1h-.04q-1.116 2.608.1 3.562a24.279 24.279 0 0 0 4.324.847l.708.063.475.081 4.45.479c.744.148 1.089.479 1.031.99.045.014.072.112.085.287a6.2 6.2 0 0 0 .332 2.034 9.4 9.4 0 0 1-.063 1.761l-.287 1.761a6.25 6.25 0 0 1-4.992 4.432c-1.532.1-3.114.224-4.763.345l-.448-.036c-2.568-.345-4.243-1.161-5.01-2.424l-.251-.811.045-.291c.09-1.3.9-1.9 2.415-1.815q4.826 1.008 5.552 1.071l.5.045a19.984 19.984 0 0 0 3 .085q1.875-2.648-.04-3.625a11.651 11.651 0 0 0-3.809-.914l-4.226-.784a2.132 2.132 0 0 1-1.985-1.179l-.085-.6a5.351 5.351 0 0 1-.914-2.11 16.872 16.872 0 0 1-.085-3.208l.171-1.062c.318-1.362 1.336-2.155 3.069-2.379l.591.018 1.263.152 1.47.246.829.063a21.915 21.915 0 0 0 7.08-.291z" class="cls-5" data-name="Trazado 29" transform="translate(-190.263 -137.964)"/>
        <path id="Trazado_30" d="M269.376 595.105v-.524h.609a.412.412 0 0 0 .269-.09.185.185 0 0 0 .085-.143v-1.21h-.963v-.524h1.224a.254.254 0 0 1 .184.076.251.251 0 0 1 .081.188v1.47a.674.674 0 0 1-.076.309.746.746 0 0 1-.2.242.924.924 0 0 1-.6.206h-.61zm-9.432-1.967v1.7a.26.26 0 0 1-.448.184.238.238 0 0 1-.076-.184v-2.448a.244.244 0 0 1 .076-.184.26.26 0 0 1 .367 0 .249.249 0 0 1 .081.184v.224h2.187a.254.254 0 0 1 .184.076.247.247 0 0 1 .076.188v1.963a.238.238 0 0 1-.076.184.265.265 0 0 1-.448-.184v-1.7h-1.922zm9.432-.525v.524h-.963v1.21a.177.177 0 0 0 .081.143.412.412 0 0 0 .269.09h.614v.524h-.614a.9.9 0 0 1-.6-.206.708.708 0 0 1-.206-.242.669.669 0 0 1-.072-.309v-1.47a.247.247 0 0 1 .076-.188.254.254 0 0 1 .184-.076h1.228zm-6.13.264v.981a.5.5 0 0 0 .072.264.651.651 0 0 0 .193.224 1.013 1.013 0 0 0 .314.171 1.174 1.174 0 0 0 .385.063.238.238 0 0 1 .184.076.265.265 0 0 1-.184.448 1.676 1.676 0 0 1-1.031-.349 1.329 1.329 0 0 1-.336-.4 1.039 1.039 0 0 1-.121-.493v-.982a.25.25 0 0 1 .161-.242.266.266 0 0 1-.085-.43.272.272 0 0 1 .188-.076.263.263 0 0 1 .1.506.249.249 0 0 1 .162.241zm4.047.26h-2.187v.721a.5.5 0 0 0 .072.264.651.651 0 0 0 .193.224 1.013 1.013 0 0 0 .314.171 1.173 1.173 0 0 0 .385.063.238.238 0 0 1 .184.076.265.265 0 0 1-.184.448 1.675 1.675 0 0 1-1.031-.349 1.329 1.329 0 0 1-.336-.4 1.039 1.039 0 0 1-.121-.493v-.982a.264.264 0 0 1 .076-.188.272.272 0 0 1 .188-.076h2.446a.272.272 0 0 1 .188.076.265.265 0 0 1 0 .372.269.269 0 0 1-.187.074z" class="cls-5" data-name="Trazado 30" transform="translate(-243.275 -555.279)"/>
        <path id="Trazado_31" d="M210.038 588.664a.191.191 0 0 1 .148.166c-.014.188-.184.412-.5.672a.3.3 0 0 1-.094 0 8.737 8.737 0 0 0-1.3-.251l-.21-.031v.018c-.134.309-.126.52.018.636a4.485 4.485 0 0 0 .77.148l.126.014.085.014.793.085c.13.027.193.085.184.175.009 0 .014.022.014.054a1.226 1.226 0 0 0 .058.363 1.446 1.446 0 0 1-.009.314l-.054.314a1.107 1.107 0 0 1-.887.789c-.273.018-.556.04-.847.063l-.081-.009a1.174 1.174 0 0 1-.9-.43l-.04-.143v-.054q.027-.343.43-.322c.574.121.9.184.99.193h.09a3.193 3.193 0 0 0 .533.018c.224-.318.22-.533 0-.645a2.158 2.158 0 0 0-.681-.166l-.753-.139a.382.382 0 0 1-.354-.21l-.014-.108a.873.873 0 0 1-.161-.376 2.818 2.818 0 0 1-.018-.569l.031-.188a.563.563 0 0 1 .546-.426h.1l.228.027.26.04.148.014a3.972 3.972 0 0 0 1.263-.054z" class="cls-5" data-name="Trazado 31" transform="translate(-194.408 -552.006)"/>
        <path id="Trazado_32" d="M541.677 601.92c.072 0 .108.036.108.116a1.244 1.244 0 0 1-.081.332c-.166.265-.35.377-.56.34h-.018a7.59 7.59 0 0 1-.6-.134l-.21-.018c-.143 0-.22.031-.22.09a1.3 1.3 0 0 0 0 .35v.13l.049 1.075c0 .224-.04.367-.121.426a.325.325 0 0 1-.166.049h-.014c-.224 0-.336-.238-.336-.717 0-.771 0-1.268-.009-1.483.085-.421.3-.507.663-.255l.6-.081a3.291 3.291 0 0 0 .735-.188.994.994 0 0 1 .18-.032z" class="cls-2" data-name="Trazado 32" transform="translate(-505.924 -564.46)"/>
        <path id="Trazado_33" d="M495.808 601.221a.4.4 0 0 1 .322.175c.027 0 .054.1.081.3v.009l-.014.367v.126a2.034 2.034 0 0 0 .094.959.393.393 0 0 0 .233.179l.336-.018c.318-.076.466-.22.444-.426a14.215 14.215 0 0 0-.09-1.42v-.045c0-.188.058-.3.184-.35l.121-.027a.361.361 0 0 1 .372.287l.027.193c-.045.569-.067.959-.067 1.156v.143a6.446 6.446 0 0 0 .059.887v.045c0 .09-.054.139-.157.153a.571.571 0 0 1-.3-.108.386.386 0 0 0-.479-.116 1.934 1.934 0 0 1-.731.081.567.567 0 0 1-.5-.381 4.34 4.34 0 0 1-.094-.587l-.081-1.313c0-.13.031-.21.085-.242a.521.521 0 0 1 .155-.027z" class="cls-2" data-name="Trazado 33" transform="translate(-464.728 -563.644)"/>
        <path id="Trazado_34" d="M448.877 573.34a.712.712 0 0 1 .614.39.247.247 0 0 1 .081.148v.014l-.022.291v1.922h.014a5.524 5.524 0 0 0 .627-.753 4.3 4.3 0 0 1 .372-.583.251.251 0 0 1 .161-.063c.143 0 .255.116.336.34v.122c0 .242-.175.434-.533.583a1.506 1.506 0 0 0-.358.233c.126.067.188.139.188.224a2.72 2.72 0 0 0 .462.829 2.319 2.319 0 0 0 .479.524c.108.09.161.152.161.2 0 .067-.076.1-.22.116a3.541 3.541 0 0 1-.753-.166.521.521 0 0 1-.175-.3 3.566 3.566 0 0 0-.6-.986c-.045-.045-.076-.072-.09-.072-.063.063-.094.112-.094.148a4.32 4.32 0 0 1-.3 1.322 1.314 1.314 0 0 1-.166.4c-.018-.009-.027-.031-.027-.063l.036-.358v-.027l-.094-.739c-.027-.291-.04-.744-.04-1.367l-.009-.157.009-.009-.009-.081v-.79l-.009-.13.009-.009-.009-.1v-.22a.978.978 0 0 0-.273-.69v-.022c.026-.081.106-.121.232-.121z" class="cls-2" data-name="Trazado 34" transform="translate(-420.719 -537.658)"/>
        <path id="Trazado_35" d="M371.839 670.945h.752v1.632h-.753v-.283h.475v-.394h-.475v-.278h.475v-.395h-.475v-.283zm0 1.855h.847v.283h-.847v-.283zm0 .588h1.183v.283h-1.183v-.283zm0 1.1v-.143c.018.036.04.072.059.108l-.059.035zm.65-.717c.014.027.031.059.054.094l.059.1a2.5 2.5 0 0 0 .39.466l-.179.206a2.761 2.761 0 0 1-.439-.524L372.3 674c-.018-.036-.04-.072-.058-.108l.076-.04zm-1.4-.381v-.3h-.471v-.29h.471v-.224h-.471v-.283h.471v-.393h-.471v-.278h.471v-.395h-.471v-.283h1.219v.283h-.466v.395h.466v.278h-.466v.395h.466v.283h-.466v.224h.466v.283h-.466v.3h.466v.283h-1.217v-.283zm.748.954v.143l-.171.108a1.692 1.692 0 0 1-.157-.345 1.967 1.967 0 0 1-.081-.34l.269-.036a1.375 1.375 0 0 0 .063.291c.023.059.05.121.077.179zm-.945-.461a1.751 1.751 0 0 1 .063.336 2.216 2.216 0 0 1 0 .34l-.273-.027a1.2 1.2 0 0 0 0-.287 1.688 1.688 0 0 0-.059-.291zm-.273-.8h-.843v-.283h.843v.283zm0-.507h-.753v-1.632h.752v.283h-.475v.395h.475v.278h-.475v.395h.475v.283zm0 1.094h-1.179v-.283h1.179v.283zm-3.361.6v-.283h1.142v-.982h-1.14v-.278h1.14v-.883h-1.14v-.283h1.425v3.007h-.285v-.3zm0-3.033v-.291l.13.031-.13.26zm2.389 3.405l-.134-.188-.027-.036a.5.5 0 0 0 .059-.049c.018-.018.045-.049.072-.081a2.369 2.369 0 0 0 .336-.542l.255.1a2.739 2.739 0 0 1-.381.619c-.031.036-.059.067-.09.1s-.063.058-.09.081zm-2.389-3.7v.291l-.171.327h.171v.283h-1.147v.883h1.147v.278h-1.147v.982h1.147v.282h-1.147v.3h-.283v-3.007h.981l.21-.668z" class="cls-5" data-name="Trazado 35" transform="translate(-343.063 -629.147)"/>
        <path id="Trazado_36" d="M567.331 665.86c.059 0 .09.031.09.1a.991.991 0 0 1-.067.287c-.139.224-.3.318-.475.287h-.014c-.031 0-.2-.04-.511-.116l-.179-.014c-.126 0-.188.027-.188.076a1.134 1.134 0 0 0 0 .3v.108l.045.914a.466.466 0 0 1-.1.363.291.291 0 0 1-.143.041h-.014c-.188 0-.283-.2-.283-.609 0-.658 0-1.075-.009-1.263.072-.358.26-.43.56-.215l.515-.067a2.715 2.715 0 0 0 .627-.161.571.571 0 0 1 .146-.031z" class="cls-5" data-name="Trazado 36" transform="translate(-530.287 -624.42)"/>
        <path id="Trazado_37" d="M528.335 665.274a.321.321 0 0 1 .269.152c.022 0 .045.085.072.255l-.014.314v.108a1.739 1.739 0 0 0 .081.811.356.356 0 0 0 .2.157l.287-.018q.41-.094.376-.363c0-.322-.027-.726-.076-1.205v-.04c0-.157.054-.255.157-.3l.1-.022a.3.3 0 0 1 .314.242l.022.166a16.39 16.39 0 0 0-.054.981v.121a6.143 6.143 0 0 0 .049.757v.04c0 .072-.045.112-.134.126a.513.513 0 0 1-.251-.09.326.326 0 0 0-.408-.1 1.72 1.72 0 0 1-.623.067.479.479 0 0 1-.421-.322 3.275 3.275 0 0 1-.081-.5l-.072-1.116c0-.112.027-.184.076-.21a.458.458 0 0 1 .131-.011z" class="cls-5" data-name="Trazado 37" transform="translate(-495.262 -623.736)"/>
        <path id="Trazado_38" d="M488.371 641.52a.622.622 0 0 1 .529.336.194.194 0 0 1 .067.126v.009l-.022.251v1.636h.014a4.554 4.554 0 0 0 .533-.645 3.629 3.629 0 0 1 .318-.493.2.2 0 0 1 .134-.054c.121 0 .22.1.287.291v.104c0 .206-.148.367-.452.493a1.171 1.171 0 0 0-.3.2c.1.059.157.121.157.188a2.33 2.33 0 0 0 .395.708 1.949 1.949 0 0 0 .408.448c.09.072.134.13.134.166 0 .054-.063.09-.184.1a2.894 2.894 0 0 1-.641-.143.461.461 0 0 1-.148-.255 3.063 3.063 0 0 0-.511-.833c-.04-.04-.067-.063-.076-.063-.054.054-.081.094-.081.126a3.523 3.523 0 0 1-.26 1.12 1.042 1.042 0 0 1-.143.34c-.018 0-.022-.022-.022-.053l.027-.3v-.027l-.076-.627a14.142 14.142 0 0 1-.036-1.161v-.874l-.009-.112h.009l-.009-.09v-.188a.828.828 0 0 0-.233-.587v-.018c.02-.083.083-.119.191-.119z" class="cls-5" data-name="Trazado 38" transform="translate(-457.789 -601.595)"/>
        <path id="Trazado_39" d="M581.59 598.628a1.1 1.1 0 0 1 .811.515 1.89 1.89 0 0 1 .238.95 1.243 1.243 0 0 1-.489 1 1.151 1.151 0 0 1-.82.269v-.471a.68.68 0 0 0 .645-.408.922.922 0 0 0 .081-.39 1 1 0 0 0-.43-.919.711.711 0 0 0-.269-.072h-.027v-.681c.067.018.134.036.206.058a.159.159 0 0 1 .054.149zm-.26 2.738a.975.975 0 0 1-.112-.009 1.06 1.06 0 0 1-1.08-.766 2.031 2.031 0 0 1-.1-.623 1.387 1.387 0 0 1 .574-1.12 1.269 1.269 0 0 1 .439-.188.405.405 0 0 0-.045-.036.173.173 0 0 1-.081-.143c0-.054.045-.081.139-.081a1.346 1.346 0 0 1 .264.027v.681a.692.692 0 0 0-.681.511.937.937 0 0 0-.04.269v.063a1.019 1.019 0 0 0 .345.811.605.605 0 0 0 .377.134v.47z" class="cls-2" data-name="Trazado 39" transform="translate(-543.941 -561.159)"/>
        <path id="Trazado_40" d="M601.293 663.046a.928.928 0 0 1 .69.439 1.584 1.584 0 0 1 .2.807 1.055 1.055 0 0 1-.412.851.96.96 0 0 1-.695.228v-.4a.588.588 0 0 0 .546-.345.8.8 0 0 0 .067-.332.837.837 0 0 0-.367-.78.567.567 0 0 0-.228-.063h-.018v-.578c.054.014.112.027.175.049a.125.125 0 0 1 .042.124zm-.215 2.326a.757.757 0 0 1-.1 0 .9.9 0 0 1-.919-.654 1.791 1.791 0 0 1-.081-.529 1.168 1.168 0 0 1 .484-.95 1.254 1.254 0 0 1 .372-.166.229.229 0 0 0-.036-.027.141.141 0 0 1-.067-.121c0-.049.04-.072.116-.072a1.043 1.043 0 0 1 .228.027v.578a.593.593 0 0 0-.583.434.81.81 0 0 0-.036.228v.054a.875.875 0 0 0 .3.69.511.511 0 0 0 .318.112v.4z" class="cls-5" data-name="Trazado 40" transform="translate(-562.64 -621.598)"/>
    </g>
</svg>
