<svg xmlns="http://www.w3.org/2000/svg" id="Grupo_16" width="17.017" height="17.017" data-name="Grupo 16" viewBox="0 0 17.017 17.017">
    <defs>
        <style>
            .cls-1{fill:#fff}.cls-2{fill:#55cd6c}.cls-3{fill:#fefefe}
        </style>
    </defs>
    <path id="Trazado_41" d="M0 17.017l1.174-4.254A8.463 8.463 0 0 1 8.479 0a8.546 8.546 0 0 1 8.538 8.449 8.648 8.648 0 0 1-8.538 8.567 8.539 8.539 0 0 1-4.137-1.174z" class="cls-1" data-name="Trazado 41"/>
    <path id="Trazado_42" d="M47.25 56.981l.264.147a6.967 6.967 0 0 0 3.667 1.085 7.113 7.113 0 0 0 7.041-7.1 7.042 7.042 0 0 0-14.083 0 7.11 7.11 0 0 0 1.086 3.787l.176.264-.675 2.464z" class="cls-2" data-name="Trazado 42" transform="translate(-42.673 -42.663)"/>
    <path id="Trazado_43" d="M131.626 135.1l-.557-.029a.666.666 0 0 0-.469.176 2.429 2.429 0 0 0-.822 1.262 3.816 3.816 0 0 0 .88 2.993 8.891 8.891 0 0 0 4.812 3.491 2.384 2.384 0 0 0 2-.235 1.731 1.731 0 0 0 .763-1.115l.088-.411a.3.3 0 0 0-.147-.323l-1.848-.851a.28.28 0 0 0-.352.088l-.734.939a.228.228 0 0 1-.235.059 5.7 5.7 0 0 1-3.081-2.641.222.222 0 0 1 .029-.235l.7-.792a.361.361 0 0 0 .059-.293l-.851-1.907a.257.257 0 0 0-.235-.176" class="cls-3" data-name="Trazado 43" transform="translate(-125.406 -130.581)"/>
</svg>
